<?xml version="1.0"?>
<svg xmlns="http://www.w3.org/2000/svg" id="filled_outline" data-name="filled outline" viewBox="0 0 512 512" width="512" height="512"><polygon points="192 56 192 80 488 104 488 64 192 56" style="fill:#91591c"/><path d="M224,56l13.7101,22.85016A29.74423,29.74423,0,0,1,236,112l0,0a29.74423,29.74423,0,0,0-1.71009,33.14982l0,0a44.41266,44.41266,0,0,1,0,45.70024l-2.69911,4.49852a29.74422,29.74422,0,0,0-2.11136,26.35L240,248v32h32V248l-10.52054-26.30135a29.74422,29.74422,0,0,1,2.11136-26.35l2.69911-4.49852a44.41266,44.41266,0,0,0,0-45.70024l0,0A29.74423,29.74423,0,0,1,268,112l0,0a29.74423,29.74423,0,0,0,1.71009-33.14982L256,56Z" style="fill:#f5c99d"/><path d="M256,56l13.7101,22.85016A29.74423,29.74423,0,0,1,268,112l0,0a29.74423,29.74423,0,0,0-1.71009,33.14982l0,0a44.41266,44.41266,0,0,1,0,45.70024l-2.69911,4.49852a29.74422,29.74422,0,0,0-2.11136,26.35L272,248v32h24V224l-.69791-1.39581a29.74428,29.74428,0,0,1,1.09858-28.60531l1.88926-3.14876a44.41266,44.41266,0,0,0,0-45.70024l0,0A29.74423,29.74423,0,0,1,300,112l0,0a29.74423,29.74423,0,0,0,1.71009-33.14982L288,56Z" style="fill:#deae7e"/><polygon points="256 488 160 488 128 264 256 264 256 488" style="fill:#f6bb00"/><polygon points="256 264 384 264 352 488 256 488 256 264" style="fill:#eda600"/><polygon points="256 264 368 152 488 152 384 264 256 264" style="fill:#fac623"/><polygon points="488 64 192 56 192 32 488 24 488 64" style="fill:#b1712c"/><path d="M72,152H24L128,264H256L144,152H112L95.02944,135.02944A24,24,0,0,0,78.05887,128h0a12.45078,12.45078,0,0,0-8.804,21.25481Z" style="fill:#fac623"/><path d="M487.78369,16.00293l-296,8A8,8,0,0,0,184,32V80a7.99976,7.99976,0,0,0,7.35352,7.97363l42.42211,3.43946a21.65542,21.65542,0,0,1-4.17553,15.78711,37.59829,37.59829,0,0,0-2.17041,42.06445,36.35168,36.35168,0,0,1,.00049,37.46973l-2.69922,4.498a37.96579,37.96579,0,0,0-4.90131,25.2832l-70.17291-70.17285A8.00035,8.00035,0,0,0,144,144H115.31348L100.686,129.37207A31.78963,31.78963,0,0,0,78.05859,120a20.474,20.474,0,0,0-20.15283,24H24a8,8,0,0,0-5.8623,13.44336L120.43445,267.60913l31.64612,221.52271A7.99986,7.99986,0,0,0,160,496H352a7.99986,7.99986,0,0,0,7.91943-6.86816l31.64612-221.52271L493.8623,157.44336A8,8,0,0,0,488,144H368a8.00035,8.00035,0,0,0-5.65674,2.34277L300.16309,208.523a21.7064,21.7064,0,0,1,3.09765-10.40772l1.88965-3.14941a52.32184,52.32184,0,0,0-.00049-53.93262,21.65994,21.65994,0,0,1,1.25-24.2334,37.68431,37.68431,0,0,0,7.36939-18.90063l173.58423,14.07446q.32373.02637.647.02637A8.00043,8.00043,0,0,0,496,104V24a8.00029,8.00029,0,0,0-8.21631-7.99707ZM200,39.78711l280-7.56836v23.5625L200,48.21289Zm0,24.43213,19.92493.53833,5.97876,9.96509L200,72.62207Zm36.90723,154.50732a21.86239,21.86239,0,0,1,1.54345-19.26172l2.69922-4.499a52.32073,52.32073,0,0,0,0-53.93262,21.65994,21.65994,0,0,1,1.25-24.2334,37.59885,37.59885,0,0,0,2.16992-42.06542l-5.67828-9.46412,13.56085.36646L262.8501,82.9668a21.65994,21.65994,0,0,1-1.25,24.2334,37.59829,37.59829,0,0,0-2.17041,42.06445,36.35168,36.35168,0,0,1,.00049,37.46973l-2.69922,4.498a37.95142,37.95142,0,0,0-2.6792,33.43653l8.5614,21.4038L256,252.686l-9.18256-9.18262ZM72,160a8.0001,8.0001,0,0,0,5.65674-13.65723l-2.74512-2.74511A4.45048,4.45048,0,0,1,78.05908,136a15.89354,15.89354,0,0,1,11.31348,4.68652l16.9707,16.97071A8.00035,8.00035,0,0,0,112,160h28.68652l96,96H131.48877L42.3457,160Zm65.22412,112H248V480H166.93848Zm207.8374,208H264V272H374.77588Zm26.252-320H469.6543l-89.14307,96H275.31348Zm-96.3916,73.76416-6.01465-15.0376a21.86239,21.86239,0,0,1,1.54345-19.26172l2.69922-4.499a52.32073,52.32073,0,0,0,0-53.93262,21.65994,21.65994,0,0,1,1.25-24.2334,37.59885,37.59885,0,0,0,2.16992-42.06542l-5.15087-8.585,13.56091.36646L294.8501,82.9668a21.65994,21.65994,0,0,1-1.25,24.2334,37.59736,37.59736,0,0,0-2.16992,42.06445,36.35279,36.35279,0,0,1,0,37.46973l-1.88916,3.14843a37.53092,37.53092,0,0,0-3.08643,32.34864ZM311.81958,81.689a38.06048,38.06048,0,0,0-3.24976-6.95458l-4.62341-7.70582L480,71.78662V95.3252Z"/></svg>
